
<svg id="Person" xmlns="http://www.w3.org/2000/svg" viewBox="0 0 1571.56 796.44">
  <path class="ppl-1" d="M815.92,493.88c19.4-24.77,48.13-40.45,77.28-52.3,13.36-5.43,27.07-10.26,39.41-17.72,10.98-6.65,20.65-15.25,31.32-22.39,15.38-10.29,32.63-17.38,49.22-25.57,18.94-9.35,37.14-20.21,54.38-32.43,6.4-4.54,12.88-9.51,16.42-16.51,3.53-6.96,3.72-15.04,5.03-22.73,2.72-15.97,10.65-31.01,22.28-42.27,12.45,23.89,10.39,54.66-5.14,76.67-12.06,17.1-30.64,28.18-46.69,41.59-22.43,18.75-40.77,42.81-66.3,57.07-10.62,5.93-22.92,10.59-29.31,20.93-3.01,4.87-4.37,10.54-6.68,15.78-13.39,30.44-53.48,38.88-74.09,64.98-5.05,6.4-8.88,13.83-14.83,19.41-10.33,9.69-25.35,12.3-39.5,13.14s-28.74.42-41.91,5.65l.12-.82c-40.89,18.83-57.17,54.98-105.62,48.01-22.07-3.17-45.67,1-65.52-9.17-8.87-4.55-16.84-11.13-26.47-13.71-15.36-4.12-33.65,2.24-46.5-7.13-7.74-5.64-11.08-15.66-11.76-25.21-.55-7.69.39-15.63,3.86-22.51s9.69-12.59,17.19-14.34c5.05-1.18,10.42-.57,15.43-1.92,3.97-1.06,8.13-3.33,11.92-1.74,1.97.83,3.39,2.57,5.15,3.78,4,2.75,9.23,2.54,14.06,3.09s10.29,2.74,11.44,7.46c.83,3.41-.93,6.86-2.64,9.93l-14.06,25.27,14.29-22.05c3.22,1.37,6.95,1.47,10.24.29l3.12,12.7c-6.29-14.34-2.66-32.43,8.68-43.23,2.62-2.5,5.68-4.73,7.22-8.01,1.01-2.16,1.26-4.59,1.66-6.94,2.63-15.32,12.14-28.44,21.57-40.8,4.45-5.83,9.03-11.8,11.21-18.81,1.52-4.88,1.8-10.05,3.01-15.01,1.91-7.84,6.08-14.9,9.85-22.03,4.04-7.62,7.68-15.44,10.93-23.43,2.8-6.91,5.34-14.16,4.99-21.61-.3-6.45-2.74-12.61-3.74-18.99-1.94-12.43,1.67-24.98,5.24-37.04,3.16-10.67,6.58-21.81,14.39-29.74.64,9.75-3.29,19.14-5.06,28.75s-.63,21.08,7.35,26.73l.49-.92c1.42-9.67,5.36-18.95,11.32-26.69,2.72,7.35.53,15.51-1.72,23.01-5.6,18.65-11.6,37.39-13.15,56.8-1.87,23.43,2.52,48.5-8.23,69.41-2.5,4.86-5.76,9.34-7.66,14.47-1.74,4.7-2.25,9.75-3.16,14.68-1.7,9.24-4.85,18.2-9.12,26.57-2.05,4.02-2.23,4.72-2.23,4.72,12.63-8.07,17.69-23.6,24.59-36.91,7.81-15.06,18.8-28.2,29.72-41.19,5.81-6.91,11.75-14.04,14.56-22.61,3.61-11.01,1.62-22.94,1.47-34.53-.1-7.65.62-15.31,2.15-22.8.68-3.32,2.11-7.2,5.43-7.85,3.45,3.18,2.96,8.64,2.57,13.32-.56,6.66-.36,13.38.6,19.99.34,2.34.82,4.78,2.3,6.62s4.27,2.85,6.29,1.63l-.85,6.49c1.45-7.14,4.97-13.85,10.01-19.1,1.17-1.22,2.92-2.45,4.42-1.66,1.34.71,1.49,2.64.85,4.02s-1.81,2.41-2.66,3.66c-3.31,4.83-1.26,11.49-2.89,17.12-1.88,6.52-8.27,10.58-11.9,16.31-1.99,3.13-3.12,6.71-4.22,10.25-10.4,33.42-21.14,69.11-47.72,91.89l-.9-.11c22.31-1.1,44.34-7.51,63.75-18.56,5-2.85,10.04-6.22,12.75-11.3l-4.47,10.25c7.14-12.56,9.73-27.1,12.72-41.23,12.06-57.04,32.93-113.13,68.48-159.34,8.92-11.59,18.79-22.62,25.52-35.6s10.06-28.6,4.97-42.31c-3.19-8.59-9.36-15.7-13.61-23.82-5.12-9.8-7.35-21.08-6.34-32.09l.31-1.89c11.36,2.04,21.61,9.54,26.99,19.76,5.78,10.97,6.48,25.08,15.82,33.24,4.67,4.09,11.6,6.96,12.52,13.1.51,3.43-1.15,6.78-2.84,9.81-9.87,17.76-22.44,34.7-26.28,54.65-1.31,6.82-1.56,13.81-2.79,20.65-2.67,14.86-10.13,28.83-20.98,39.32-6.37,6.16-14.32,11.86-16.18,20.52-.65,3.01-.48,6.14-.17,9.2,2.03,20.39,9.82,41.19,3.87,60.8"/>
</svg>